<svg width="436" height="65" viewBox="0 0 436 65" version="1.1" xmlns="http://www.w3.org/2000/svg" xmlns:xlink="http://www.w3.org/1999/xlink" xmlns:figma="http://www.figma.com/figma/ns">
<title>gdg-logo-white</title>
<desc>Created using Figma</desc>
<g id="Canvas" transform="translate(520 132)" figma:type="canvas">
<g id="gdg-logo-white" style="mix-blend-mode:normal;" figma:type="frame">
<g id="XMLID 6" style="mix-blend-mode:normal;" figma:type="frame">
<g id="XMLID 3" style="mix-blend-mode:normal;" figma:type="vector">
<use xlink:href="#path0_fill" transform="translate(-454.474 -126.897)" fill="#FFFFFF" style="mix-blend-mode:normal;"/>
</g>
<g id="XMLID 20" style="mix-blend-mode:normal;" figma:type="vector">
<use xlink:href="#path1_fill" transform="translate(-395.652 -125.792)" fill="#FFFFFF" style="mix-blend-mode:normal;"/>
</g>
<g id="XMLID 23" style="mix-blend-mode:normal;" figma:type="vector">
<use xlink:href="#path2_fill" transform="translate(-349.483 -126.897)" fill="#FFFFFF" style="mix-blend-mode:normal;"/>
</g>
<g id="Recife" style="mix-blend-mode:normal;" figma:type="vector">
<use xlink:href="#path3_fill" transform="translate(-272.86 -126.404)" fill="#FFFFFF" style="mix-blend-mode:normal;"/>
<use xlink:href="#path4_fill" transform="translate(-272.86 -126.404)" fill="#FFFFFF" style="mix-blend-mode:normal;"/>
<use xlink:href="#path5_fill" transform="translate(-272.86 -126.404)" fill="#FFFFFF" style="mix-blend-mode:normal;"/>
<use xlink:href="#path6_fill" transform="translate(-272.86 -126.404)" fill="#FFFFFF" style="mix-blend-mode:normal;"/>
<use xlink:href="#path7_fill" transform="translate(-272.86 -126.404)" fill="#FFFFFF" style="mix-blend-mode:normal;"/>
<use xlink:href="#path8_fill" transform="translate(-272.86 -126.404)" fill="#FFFFFF" style="mix-blend-mode:normal;"/>
</g>
</g>
<g id="XMLID 261" style="mix-blend-mode:normal;" figma:type="frame">
<g id="XMLID 259" style="mix-blend-mode:normal;" figma:type="vector">
<use xlink:href="#path9_fill" transform="translate(-520 -132)" fill="#FFFFFF" style="mix-blend-mode:normal;"/>
</g>
<g id="XMLID 258" style="mix-blend-mode:normal;" figma:type="vector">
<use xlink:href="#path10_fill" transform="translate(-508.196 -132)" fill="#FFFFFF" style="mix-blend-mode:normal;"/>
</g>
<g id="XMLID 257" style="mix-blend-mode:normal;" figma:type="vector">
<use xlink:href="#path11_fill" transform="translate(-519.706 -98.1675)" fill="#FFFFFF" style="mix-blend-mode:normal;"/>
</g>
<g id="XMLID 256" style="mix-blend-mode:normal;" figma:type="vector">
<use xlink:href="#path12_fill" transform="translate(-507.902 -88.0275)" fill="#FFFFFF" style="mix-blend-mode:normal;"/>
</g>
</g>
</g>
</g>
<defs>
<path id="path0_fill" d="M 52.1523 28.8275C 52.1523 35.9775 50.027 41.6975 45.7436 45.955C 40.9044 51.025 34.5938 53.56 26.8119 53.56C 19.3569 53.56 13.0463 50.9925 7.81467 45.8575C 2.61579 40.7225 -1.99569e-06 34.3525 -1.99569e-06 26.78C -1.99569e-06 19.2075 2.61579 12.8375 7.81467 7.7025C 13.0136 2.5675 19.3569 -9.91821e-07 26.8119 -9.91821e-07C 30.5067 -9.91821e-07 34.038 0.715001 37.4058 2.145C 40.7736 3.575 43.4548 5.4925 45.4821 7.865L 40.9371 12.3825C 37.5039 8.2875 32.7955 6.2725 26.7792 6.2725C 21.3514 6.2725 16.643 8.1575 12.6866 11.96C 8.73021 15.7625 6.73566 20.67 6.73566 26.7475C 6.73566 32.825 8.73021 37.7325 12.6866 41.535C 16.643 45.3375 21.3514 47.2225 26.7792 47.2225C 32.5339 47.2225 37.3404 45.305 41.1987 41.5025C 43.6837 39.0325 45.1224 35.555 45.5148 31.135L 26.7792 31.135L 26.7792 24.96L 51.76 24.96C 52.0216 26.2925 52.1523 27.5925 52.1523 28.8275L 52.1523 28.8275Z"/>
<path id="path1_fill" d="M -3.99138e-06 51.285L -3.99138e-06 1.98364e-06L 15.7601 1.98364e-06C 23.6729 1.98364e-06 30.0162 2.3725 34.79 7.1175C 39.5312 11.8625 41.9181 18.0375 41.9181 25.6425C 41.9181 33.2475 39.5312 39.39 34.79 44.1675C 30.0489 48.9125 23.7056 51.285 15.7601 51.285L -3.99138e-06 51.285ZM 6.63757 44.98L 15.7928 44.98C 21.7438 44.98 26.4522 43.29 29.9508 39.91C 33.4167 36.53 35.1824 31.785 35.1824 25.675C 35.1824 19.5975 33.4494 14.885 29.9508 11.4725C 26.4522 8.06 21.7438 6.3375 15.7928 6.3375L 6.63757 6.3375L 6.63757 44.98Z"/>
<path id="path2_fill" d="M 52.1523 28.8275C 52.1523 35.9775 50.027 41.6975 45.7437 45.955C 40.9044 51.025 34.5938 53.56 26.8119 53.56C 19.3569 53.56 13.0463 50.9925 7.81468 45.8575C 2.6158 40.7225 0 34.3525 0 26.78C 0 19.2075 2.6158 12.8375 7.81468 7.7025C 13.0136 2.5675 19.3569 -9.91821e-07 26.8119 -9.91821e-07C 30.5067 -9.91821e-07 34.038 0.715001 37.4058 2.145C 40.7737 3.575 43.4548 5.4925 45.4821 7.865L 40.9371 12.3825C 37.5039 8.2875 32.7955 6.2725 26.7792 6.2725C 21.3514 6.2725 16.643 8.1575 12.6866 11.96C 8.7302 15.7625 6.73565 20.67 6.73565 26.7475C 6.73565 32.825 8.7302 37.7325 12.6866 41.535C 16.643 45.3375 21.3514 47.2225 26.7792 47.2225C 32.5339 47.2225 37.3404 45.305 41.1987 41.5025C 43.6837 39.0325 45.1224 35.555 45.5148 31.135L 26.7792 31.135L 26.7792 24.96L 51.76 24.96C 52.0215 26.2925 52.1523 27.5925 52.1523 28.8275L 52.1523 28.8275Z"/>
<path id="path3_fill" d="M 6.61795 6.864L 6.61795 24.882L 17.2642 24.882C 19.9498 24.882 22.2277 24.024 24.098 22.308C 25.9683 20.5443 26.9034 18.3755 26.9034 15.8015C 26.9034 13.4182 26.0162 11.3447 24.2418 9.581C 22.5154 7.76967 20.3334 6.864 17.6958 6.864L 6.61795 6.864ZM 6.61795 51.766L 0 51.766L 0 0.571999L 17.552 0.571999C 22.0119 0.571999 25.8004 2.04967 28.9176 5.005C 32.0827 7.91267 33.6652 11.5115 33.6652 15.8015C 33.6652 19.3288 32.4903 22.4748 30.1405 25.2395C 27.8386 27.9565 24.9132 29.6963 21.3645 30.459L 21.2206 30.6735L 35.6794 51.48L 35.6794 51.766L 27.8386 51.766L 13.9552 31.031L 6.61795 31.031L 6.61795 51.766Z"/>
<path id="path4_fill" d="M 55.5591 52.91C 50.3798 52.91 46.1117 51.1463 42.7548 47.619C 39.3979 44.0917 37.7194 39.6348 37.7194 34.2485C 37.7194 28.9098 39.3499 24.4768 42.6109 20.9495C 45.872 17.3745 50.0441 15.587 55.1275 15.587C 60.3547 15.587 64.5029 17.2792 67.5721 20.6635C 70.6893 24.0002 72.2479 28.6953 72.2479 34.749L 72.1759 35.464L 44.4812 35.464C 44.5771 38.896 45.7281 41.6607 47.9341 43.758C 50.1401 45.8553 52.7776 46.904 55.8468 46.904C 60.067 46.904 63.376 44.8067 65.7738 40.612L 71.6724 43.472C 70.0898 46.4273 67.8838 48.7392 65.0544 50.4075C 62.273 52.0758 59.1079 52.91 55.5591 52.91ZM 44.9848 30.03L 65.1983 30.03C 65.0065 27.599 63.9994 25.597 62.1771 24.024C 60.4027 22.4033 58.0049 21.593 54.9836 21.593C 52.4899 21.593 50.3319 22.3557 48.5095 23.881C 46.7352 25.4063 45.5602 27.456 44.9848 30.03Z"/>
<path id="path5_fill" d="M 94.7644 52.91C 89.5372 52.91 85.1971 51.1463 81.7443 47.619C 78.3394 43.9963 76.637 39.5395 76.637 34.2485C 76.637 28.8622 78.3394 24.4053 81.7443 20.878C 85.1971 17.3507 89.5372 15.587 94.7644 15.587C 98.3611 15.587 101.502 16.4927 104.188 18.304C 106.873 20.0677 108.887 22.5225 110.23 25.6685L 104.188 28.171C 102.318 23.7857 99.0325 21.593 94.3328 21.593C 91.3116 21.593 88.6979 22.8085 86.492 25.2395C 84.3339 27.6705 83.2549 30.6735 83.2549 34.2485C 83.2549 37.8235 84.3339 40.8265 86.492 43.2575C 88.6979 45.6885 91.3116 46.904 94.3328 46.904C 99.1764 46.904 102.581 44.7113 104.547 40.326L 110.446 42.8285C 109.151 45.9745 107.113 48.4532 104.332 50.2645C 101.598 52.0282 98.4091 52.91 94.7644 52.91Z"/>
<path id="path6_fill" d="M 124.794 4.6475C 124.794 5.9345 124.339 7.03083 123.427 7.9365C 122.516 8.84217 121.413 9.295 120.118 9.295C 118.824 9.295 117.721 8.84217 116.809 7.9365C 115.898 7.03083 115.443 5.9345 115.443 4.6475C 115.443 3.3605 115.898 2.26417 116.809 1.3585C 117.721 0.452833 118.824 0 120.118 0C 121.413 0 122.516 0.452833 123.427 1.3585C 124.339 2.26417 124.794 3.3605 124.794 4.6475ZM 123.427 16.731L 123.427 51.766L 116.809 51.766L 116.809 16.731L 123.427 16.731Z"/>
<path id="path7_fill" d="M 148.297 0C 150.695 0 152.661 0.405166 154.196 1.2155L 152.397 7.007C 151.246 6.435 149.951 6.149 148.513 6.149C 146.882 6.149 145.54 6.721 144.484 7.865C 143.477 8.96133 142.974 10.439 142.974 12.298L 142.974 16.731L 152.181 16.731L 152.181 22.737L 142.974 22.737L 142.974 51.766L 136.356 51.766L 136.356 22.737L 129.738 22.737L 129.738 16.731L 136.356 16.731L 136.356 11.6545C 136.356 8.17483 137.459 5.3625 139.665 3.2175C 141.919 1.0725 144.796 0 148.297 0Z"/>
<path id="path8_fill" d="M 172.171 52.91C 166.992 52.91 162.724 51.1463 159.367 47.619C 156.01 44.0917 154.332 39.6348 154.332 34.2485C 154.332 28.9098 155.962 24.4768 159.223 20.9495C 162.484 17.3745 166.656 15.587 171.74 15.587C 176.967 15.587 181.115 17.2792 184.184 20.6635C 187.301 24.0002 188.86 28.6953 188.86 34.749L 188.788 35.464L 161.093 35.464C 161.189 38.896 162.34 41.6607 164.546 43.758C 166.752 45.8553 169.39 46.904 172.459 46.904C 176.679 46.904 179.988 44.8067 182.386 40.612L 188.285 43.472C 186.702 46.4273 184.496 48.7392 181.667 50.4075C 178.885 52.0758 175.72 52.91 172.171 52.91ZM 161.597 30.03L 181.81 30.03C 181.619 27.599 180.612 25.597 178.789 24.024C 177.015 22.4033 174.617 21.593 171.596 21.593C 169.102 21.593 166.944 22.3557 165.122 23.881C 163.347 25.4063 162.172 27.456 161.597 30.03Z"/>
<path id="path9_fill" d="M 10.5613 0L 0 0L 30.1797 52L 35.4767 42.9L 10.5613 0Z"/>
<path id="path10_fill" d="M 27.7274 29.575L 10.5286 0L 1.99569e-06 0L 24.2942 41.86L 27.7274 35.945C 28.2832 35.035 28.6429 33.93 28.6429 32.76C 28.6102 31.59 28.2832 30.5175 27.7274 29.575L 27.7274 29.575Z"/>
<path id="path11_fill" d="M 18.1144 1.98364e-06L 4.98923e-07 31.1675L 10.5613 31.1675L 23.4113 9.0675L 18.1144 1.98364e-06Z"/>
<path id="path12_fill" d="M 12.1961 -3.96729e-06L 0 21.0275L 10.5286 21.0275L 17.4931 9.0675L 12.1961 -3.96729e-06Z"/>
</defs>
</svg>
