<svg width="1334" height="200" viewBox="0 0 1334 200" version="1.1" xmlns="http://www.w3.org/2000/svg" xmlns:xlink="http://www.w3.org/1999/xlink" xmlns:figma="http://www.figma.com/figma/ns">
<title>gdg-logo</title>
<desc>Created using Figma</desc>
<g id="Canvas" transform="translate(520 132)" figma:type="canvas">
<g id="gdg-logo" style="mix-blend-mode:normal;" figma:type="frame">
<g id="XMLID 6" style="mix-blend-mode:normal;" figma:type="frame">
<g id="XMLID 3" style="mix-blend-mode:normal;" figma:type="vector">
<use xlink:href="#path0_fill" transform="translate(-319.6 -116.3)" fill="#757575" style="mix-blend-mode:normal;"/>
</g>
<g id="XMLID 20" style="mix-blend-mode:normal;" figma:type="vector">
<use xlink:href="#path1_fill" transform="translate(-139.7 -112.9)" fill="#757575" style="mix-blend-mode:normal;"/>
</g>
<g id="XMLID 23" style="mix-blend-mode:normal;" figma:type="vector">
<use xlink:href="#path2_fill" transform="translate(1.5 -116.3)" fill="#757575" style="mix-blend-mode:normal;"/>
</g>
<g id="Recife" style="mix-blend-mode:normal;" figma:type="vector">
<use xlink:href="#path3_fill" transform="translate(235.84 -114.78)" fill="#757575" style="mix-blend-mode:normal;"/>
<use xlink:href="#path4_fill" transform="translate(235.84 -114.78)" fill="#757575" style="mix-blend-mode:normal;"/>
<use xlink:href="#path5_fill" transform="translate(235.84 -114.78)" fill="#757575" style="mix-blend-mode:normal;"/>
<use xlink:href="#path6_fill" transform="translate(235.84 -114.78)" fill="#757575" style="mix-blend-mode:normal;"/>
<use xlink:href="#path7_fill" transform="translate(235.84 -114.78)" fill="#757575" style="mix-blend-mode:normal;"/>
<use xlink:href="#path8_fill" transform="translate(235.84 -114.78)" fill="#757575" style="mix-blend-mode:normal;"/>
</g>
</g>
<g id="XMLID 261" style="mix-blend-mode:normal;" figma:type="frame">
<g id="XMLID 259" style="mix-blend-mode:normal;" figma:type="vector">
<use xlink:href="#path9_fill" transform="translate(-520 -132)" fill="#757575" style="mix-blend-mode:normal;"/>
</g>
<g id="XMLID 258" style="mix-blend-mode:normal;" figma:type="vector">
<use xlink:href="#path10_fill" transform="translate(-483.9 -132)" fill="#757575" style="mix-blend-mode:normal;"/>
</g>
<g id="XMLID 257" style="mix-blend-mode:normal;" figma:type="vector">
<use xlink:href="#path11_fill" transform="translate(-519.1 -27.9)" fill="#757575" style="mix-blend-mode:normal;"/>
</g>
<g id="XMLID 256" style="mix-blend-mode:normal;" figma:type="vector">
<use xlink:href="#path12_fill" transform="translate(-483 3.29999)" fill="#757575" style="mix-blend-mode:normal;"/>
</g>
</g>
</g>
</g>
<defs>
<path id="path0_fill" d="M 159.5 88.7C 159.5 110.7 153 128.3 139.9 141.4C 125.1 157 105.8 164.8 82 164.8C 59.2 164.8 39.9 156.9 23.9 141.1C 7.99999 125.3 -6.10352e-06 105.7 -6.10352e-06 82.4C -6.10352e-06 59.1 7.99999 39.5 23.9 23.7C 39.8 7.89999 59.2 -3.05176e-06 82 -3.05176e-06C 93.3 -3.05176e-06 104.1 2.2 114.4 6.6C 124.7 11 132.9 16.9 139.1 24.2L 125.2 38.1C 114.7 25.5 100.3 19.3 81.9 19.3C 65.3 19.3 50.9 25.1 38.8 36.8C 26.7 48.5 20.6 63.6 20.6 82.3C 20.6 101 26.7 116.1 38.8 127.8C 50.9 139.5 65.3 145.3 81.9 145.3C 99.5 145.3 114.2 139.4 126 127.7C 133.6 120.1 138 109.4 139.2 95.8L 81.9 95.8L 81.9 76.8L 158.3 76.8C 159.1 80.9 159.5 84.9 159.5 88.7L 159.5 88.7Z"/>
<path id="path1_fill" d="M -1.2207e-05 157.8L -1.2207e-05 6.10352e-06L 48.2 6.10352e-06C 72.4 6.10352e-06 91.8 7.3 106.4 21.9C 120.9 36.5 128.2 55.5 128.2 78.9C 128.2 102.3 120.9 121.2 106.4 135.9C 91.9 150.5 72.5 157.8 48.2 157.8L -1.2207e-05 157.8ZM 20.3 138.4L 48.3 138.4C 66.5 138.4 80.9 133.2 91.6 122.8C 102.2 112.4 107.6 97.8 107.6 79C 107.6 60.3 102.3 45.8 91.6 35.3C 80.9 24.8 66.5 19.5 48.3 19.5L 20.3 19.5L 20.3 138.4Z"/>
<path id="path2_fill" d="M 159.5 88.7C 159.5 110.7 153 128.3 139.9 141.4C 125.1 157 105.8 164.8 82 164.8C 59.2 164.8 39.9 156.9 23.9 141.1C 8.00002 125.3 0 105.7 0 82.4C 0 59.1 8.00002 39.5 23.9 23.7C 39.8 7.89999 59.2 -3.05176e-06 82 -3.05176e-06C 93.3 -3.05176e-06 104.1 2.2 114.4 6.6C 124.7 11 132.9 16.9 139.1 24.2L 125.2 38.1C 114.7 25.5 100.3 19.3 81.9 19.3C 65.3 19.3 50.9 25.1 38.8 36.8C 26.7 48.5 20.6 63.6 20.6 82.3C 20.6 101 26.7 116.1 38.8 127.8C 50.9 139.5 65.3 145.3 81.9 145.3C 99.5 145.3 114.2 139.4 126 127.7C 133.6 120.1 138 109.4 139.2 95.8L 81.9 95.8L 81.9 76.8L 158.3 76.8C 159.1 80.9 159.5 84.9 159.5 88.7L 159.5 88.7Z"/>
<path id="path3_fill" d="M 20.24 21.12L 20.24 76.56L 52.8 76.56C 61.0133 76.56 67.98 73.92 73.7 68.64C 79.42 63.2133 82.28 56.54 82.28 48.62C 82.28 41.2867 79.5667 34.9067 74.14 29.48C 68.86 23.9067 62.1867 21.12 54.12 21.12L 20.24 21.12ZM 20.24 159.28L 0 159.28L 0 1.76L 53.68 1.76C 67.32 1.76 78.9067 6.30667 88.44 15.4C 98.12 24.3467 102.96 35.42 102.96 48.62C 102.96 59.4733 99.3667 69.1533 92.18 77.66C 85.14 86.02 76.1933 91.3733 65.34 93.72L 64.9 94.38L 109.12 158.4L 109.12 159.28L 85.14 159.28L 42.68 95.48L 20.24 95.48L 20.24 159.28Z"/>
<path id="path4_fill" d="M 169.919 162.8C 154.079 162.8 141.026 157.373 130.759 146.52C 120.492 135.667 115.359 121.953 115.359 105.38C 115.359 88.9533 120.346 75.3133 130.319 64.46C 140.292 53.46 153.052 47.96 168.599 47.96C 184.586 47.96 197.272 53.1667 206.659 63.58C 216.192 73.8467 220.959 88.2933 220.959 106.92L 220.739 109.12L 136.039 109.12C 136.332 119.68 139.852 128.187 146.599 134.64C 153.346 141.093 161.412 144.32 170.799 144.32C 183.706 144.32 193.826 137.867 201.159 124.96L 219.199 133.76C 214.359 142.853 207.612 149.967 198.959 155.1C 190.452 160.233 180.772 162.8 169.919 162.8ZM 137.579 92.4L 199.399 92.4C 198.812 84.92 195.732 78.76 190.159 73.92C 184.732 68.9333 177.399 66.44 168.159 66.44C 160.532 66.44 153.932 68.7867 148.359 73.48C 142.932 78.1733 139.339 84.48 137.579 92.4Z"/>
<path id="path5_fill" d="M 289.823 162.8C 273.836 162.8 260.563 157.373 250.003 146.52C 239.589 135.373 234.383 121.66 234.383 105.38C 234.383 88.8067 239.589 75.0933 250.003 64.24C 260.563 53.3867 273.836 47.96 289.823 47.96C 300.823 47.96 310.429 50.7467 318.643 56.32C 326.856 61.7467 333.016 69.3 337.122 78.98L 318.643 86.68C 312.923 73.1867 302.876 66.44 288.503 66.44C 279.263 66.44 271.269 70.18 264.522 77.66C 257.922 85.14 254.622 94.38 254.622 105.38C 254.622 116.38 257.922 125.62 264.522 133.1C 271.269 140.58 279.263 144.32 288.503 144.32C 303.316 144.32 313.729 137.573 319.742 124.08L 337.783 131.78C 333.823 141.46 327.589 149.087 319.082 154.66C 310.722 160.087 300.969 162.8 289.823 162.8Z"/>
<path id="path6_fill" d="M 381.664 14.3C 381.664 18.26 380.271 21.6333 377.484 24.42C 374.697 27.2067 371.324 28.6 367.364 28.6C 363.404 28.6 360.031 27.2067 357.244 24.42C 354.457 21.6333 353.064 18.26 353.064 14.3C 353.064 10.34 354.457 6.96667 357.244 4.18C 360.031 1.39333 363.404 0 367.364 0C 371.324 0 374.697 1.39333 377.484 4.18C 380.271 6.96667 381.664 10.34 381.664 14.3ZM 377.484 51.48L 377.484 159.28L 357.244 159.28L 357.244 51.48L 377.484 51.48Z"/>
<path id="path7_fill" d="M 453.544 0C 460.877 0 466.89 1.24666 471.584 3.74L 466.084 21.56C 462.564 19.8 458.604 18.92 454.204 18.92C 449.217 18.92 445.11 20.68 441.884 24.2C 438.804 27.5733 437.264 32.12 437.264 37.84L 437.264 51.48L 465.424 51.48L 465.424 69.96L 437.264 69.96L 437.264 159.28L 417.024 159.28L 417.024 69.96L 396.784 69.96L 396.784 51.48L 417.024 51.48L 417.024 35.86C 417.024 25.1533 420.397 16.5 427.144 9.9C 434.037 3.3 442.837 0 453.544 0Z"/>
<path id="path8_fill" d="M 526.56 162.8C 510.72 162.8 497.666 157.373 487.4 146.52C 477.133 135.667 472 121.953 472 105.38C 472 88.9533 476.986 75.3133 486.96 64.46C 496.933 53.46 509.693 47.96 525.24 47.96C 541.226 47.96 553.913 53.1667 563.3 63.58C 572.833 73.8467 577.6 88.2933 577.6 106.92L 577.38 109.12L 492.68 109.12C 492.973 119.68 496.493 128.187 503.24 134.64C 509.986 141.093 518.053 144.32 527.44 144.32C 540.346 144.32 550.466 137.867 557.8 124.96L 575.84 133.76C 571 142.853 564.253 149.967 555.6 155.1C 547.093 160.233 537.413 162.8 526.56 162.8ZM 494.22 92.4L 556.04 92.4C 555.453 84.92 552.373 78.76 546.8 73.92C 541.373 68.9333 534.04 66.44 524.8 66.44C 517.173 66.44 510.573 68.7867 505 73.48C 499.573 78.1733 495.98 84.48 494.22 92.4Z"/>
<path id="path9_fill" d="M 32.3 0L 0 0L 92.3 160L 108.5 132L 32.3 0Z"/>
<path id="path10_fill" d="M 84.8 91L 32.2 0L 6.10352e-06 0L 74.3 128.8L 84.8 110.6C 86.5 107.8 87.6 104.4 87.6 100.8C 87.5 97.2 86.5 93.9 84.8 91L 84.8 91Z"/>
<path id="path11_fill" d="M 55.4 6.10352e-06L 1.52588e-06 95.9L 32.3 95.9L 71.6 27.9L 55.4 6.10352e-06Z"/>
<path id="path12_fill" d="M 37.3 -1.2207e-05L 0 64.7L 32.2 64.7L 53.5 27.9L 37.3 -1.2207e-05Z"/>
</defs>
</svg>
