<svg width="177" height="281" viewBox="0 0 177 281" version="1.1" xmlns="http://www.w3.org/2000/svg" xmlns:xlink="http://www.w3.org/1999/xlink" xmlns:figma="http://www.figma.com/figma/ns">
<title>Group</title>
<desc>Created using Figma</desc>
<g id="Canvas" transform="translate(89 141)" figma:type="canvas">
<g id="Group" style="mix-blend-mode:normal;" figma:type="frame">
<g id="Group" style="mix-blend-mode:normal;" figma:type="frame">
<g id="Vector" style="mix-blend-mode:normal;" figma:type="vector">
<use xlink:href="#path0_fill" transform="translate(-64.2134 78.8)" fill="#FFFFFF" style="mix-blend-mode:normal;"/>
</g>
<g id="Vector" style="mix-blend-mode:normal;" figma:type="vector">
<use xlink:href="#path1_fill" transform="translate(-58.2134 -88.1)" fill="#FFFFFF" style="mix-blend-mode:normal;"/>
</g>
<g id="Vector" style="mix-blend-mode:normal;" figma:type="vector">
<use xlink:href="#path2_fill" transform="translate(-2.41338 -131.8)" fill="#FFFFFF" style="mix-blend-mode:normal;"/>
</g>
<g id="Vector" style="mix-blend-mode:normal;" figma:type="vector">
<use xlink:href="#path3_fill" transform="translate(16.5866 -122.9)" fill="#FFFFFF" style="mix-blend-mode:normal;"/>
</g>
<g id="Vector" style="mix-blend-mode:normal;" figma:type="vector">
<use xlink:href="#path4_fill" transform="translate(17.211 65.4351)" fill="#FFFFFF" style="mix-blend-mode:normal;"/>
</g>
<g id="Vector" style="mix-blend-mode:normal;" figma:type="vector">
<use xlink:href="#path5_fill" transform="translate(36.011 34.3351)" fill="#FFFFFF" style="mix-blend-mode:normal;"/>
</g>
<g id="Vector" style="mix-blend-mode:normal;" figma:type="vector">
<use xlink:href="#path6_fill" transform="translate(54.811 3.23514)" fill="#FFFFFF" style="mix-blend-mode:normal;"/>
</g>
<g id="Vector" style="mix-blend-mode:normal;" figma:type="vector">
<use xlink:href="#path7_fill" transform="translate(-86.0134 93.7)" fill="#FFFFFF" style="mix-blend-mode:normal;"/>
</g>
<g id="Vector" style="mix-blend-mode:normal;" figma:type="vector">
<use xlink:href="#path8_fill" transform="translate(-80.7134 95.2)" fill="#FFFFFF" style="mix-blend-mode:normal;"/>
</g>
<g id="Vector" style="mix-blend-mode:normal;" figma:type="vector">
<use xlink:href="#path9_fill" transform="translate(-88.5134 -140.3)" fill="#FFFFFF" style="mix-blend-mode:normal;"/>
</g>
<g id="Vector" style="mix-blend-mode:normal;" figma:type="vector">
<use xlink:href="#path10_fill" transform="translate(-29.0134 -49.7)" fill="#FFFFFF" style="mix-blend-mode:normal;"/>
</g>
<g id="Vector" style="mix-blend-mode:normal;" figma:type="vector">
<use xlink:href="#path11_fill" transform="translate(-52.3134 50.2)" fill="#FFFFFF" style="mix-blend-mode:normal;"/>
</g>
<g id="Vector" style="mix-blend-mode:normal;" figma:type="vector">
<use xlink:href="#path12_fill" transform="translate(-43.6968 112.7)" fill="#FFFFFF" style="mix-blend-mode:normal;"/>
</g>
<g id="Vector" style="mix-blend-mode:normal;" figma:type="vector">
<use xlink:href="#path13_fill" transform="translate(-88.5134 137.2)" fill="#FFFFFF" style="mix-blend-mode:normal;"/>
</g>
<g id="Vector" style="mix-blend-mode:normal;" figma:type="vector">
<use xlink:href="#path14_fill" transform="translate(-73.4134 -114.2)" fill="#FFFFFF" style="mix-blend-mode:normal;"/>
</g>
<g id="Vector" style="mix-blend-mode:normal;" figma:type="vector">
<use xlink:href="#path15_fill" transform="translate(-0.61338 76)" fill="#FFFFFF" style="mix-blend-mode:normal;"/>
</g>
<g id="Vector" style="mix-blend-mode:normal;" figma:type="vector">
<use xlink:href="#path16_fill" transform="translate(-35.7134 37.9)" fill="#FFFFFF" style="mix-blend-mode:normal;"/>
</g>
<g id="Vector" style="mix-blend-mode:normal;" figma:type="vector">
<use xlink:href="#path17_fill" transform="translate(-32.3134 -52.6)" fill="#FFFFFF" style="mix-blend-mode:normal;"/>
</g>
<g id="Vector" style="mix-blend-mode:normal;" figma:type="vector">
<use xlink:href="#path18_fill" transform="translate(24.4866 -37.1)" fill="#FFFFFF" style="mix-blend-mode:normal;"/>
</g>
<g id="Vector" style="mix-blend-mode:normal;" figma:type="vector">
<use xlink:href="#path19_fill" transform="translate(-42.0134 -59.8)" fill="#FFFFFF" style="mix-blend-mode:normal;"/>
</g>
<g id="Vector" style="mix-blend-mode:normal;" figma:type="vector">
<use xlink:href="#path20_fill" transform="translate(-28.3134 -39.8)" fill="#FFFFFF" style="mix-blend-mode:normal;"/>
</g>
<g id="Vector" style="mix-blend-mode:normal;" figma:type="vector">
<use xlink:href="#path21_fill" transform="translate(26.8866 16.4)" fill="#FFFFFF" style="mix-blend-mode:normal;"/>
</g>
<g id="Vector" style="mix-blend-mode:normal;" figma:type="vector">
<use xlink:href="#path22_fill" transform="translate(7.18661 -11.8)" fill="#FFFFFF" style="mix-blend-mode:normal;"/>
</g>
<g id="Vector" style="mix-blend-mode:normal;" figma:type="vector">
<use xlink:href="#path23_fill" transform="translate(24.9866 -12.2)" fill="#FFFFFF" style="mix-blend-mode:normal;"/>
</g>
<g id="Vector" style="mix-blend-mode:normal;" figma:type="vector">
<use xlink:href="#path24_fill" transform="translate(2.58662 30)" fill="#FFFFFF" style="mix-blend-mode:normal;"/>
</g>
<g id="Vector" style="mix-blend-mode:normal;" figma:type="vector">
<use xlink:href="#path25_fill" transform="translate(-10.3134 17.1)" fill="#FFFFFF" style="mix-blend-mode:normal;"/>
</g>
<g id="Vector" style="mix-blend-mode:normal;" figma:type="vector">
<use xlink:href="#path26_fill" transform="translate(-15.2384 11.9)" fill="#FFFFFF" style="mix-blend-mode:normal;"/>
</g>
<g id="Vector" style="mix-blend-mode:normal;" figma:type="vector">
<use xlink:href="#path27_fill" transform="translate(7.68661 46)" fill="#FFFFFF" style="mix-blend-mode:normal;"/>
</g>
<g id="Vector" style="mix-blend-mode:normal;" figma:type="vector">
<use xlink:href="#path28_fill" transform="translate(-11.0134 19.3)" fill="#FFFFFF" style="mix-blend-mode:normal;"/>
</g>
<g id="Vector" style="mix-blend-mode:normal;" figma:type="vector">
<use xlink:href="#path29_fill" transform="translate(-1.41338 -42.3)" fill="#FFFFFF" style="mix-blend-mode:normal;"/>
</g>
<g id="Vector" style="mix-blend-mode:normal;" figma:type="vector">
<use xlink:href="#path30_fill" transform="translate(-10.1134 -39.5)" fill="#FFFFFF" style="mix-blend-mode:normal;"/>
</g>
<g id="Vector" style="mix-blend-mode:normal;" figma:type="vector">
<use xlink:href="#path31_fill" transform="translate(-15.2586 -31.6)" fill="#FFFFFF" style="mix-blend-mode:normal;"/>
</g>
<g id="Vector" style="mix-blend-mode:normal;" figma:type="vector">
<use xlink:href="#path32_fill" transform="translate(0.38662 -46.9)" fill="#FFFFFF" style="mix-blend-mode:normal;"/>
</g>
<g id="Vector" style="mix-blend-mode:normal;" figma:type="vector">
<use xlink:href="#path33_fill" transform="translate(-3.11338 -40.9)" fill="#FFFFFF" style="mix-blend-mode:normal;"/>
</g>
<g id="Vector" style="mix-blend-mode:normal;" figma:type="vector">
<use xlink:href="#path34_fill" transform="translate(-48.0134 61.5)" fill="#FFFFFF" style="mix-blend-mode:normal;"/>
</g>
<g id="Vector" style="mix-blend-mode:normal;" figma:type="vector">
<use xlink:href="#path35_fill" transform="translate(-21.5059 83.9)" fill="#FFFFFF" style="mix-blend-mode:normal;"/>
</g>
<g id="Vector" style="mix-blend-mode:normal;" figma:type="vector">
<use xlink:href="#path36_fill" transform="translate(-2.25748 116)" fill="#FFFFFF" style="mix-blend-mode:normal;"/>
</g>
<g id="Vector" style="mix-blend-mode:normal;" figma:type="vector">
<use xlink:href="#path37_fill" transform="translate(-56.2134 -140.3)" fill="#FFFFFF" style="mix-blend-mode:normal;"/>
</g>
</g>
</g>
</g>
<defs>
<path id="path0_fill" d="M 25.8 10.3C 21.1 6.29999 16 2.90001 10.7 6.10352e-06L -7.62939e-07 18.6L 18.8 9.29999L 12.4 50.7L 41.3 60.5L 55 60.5C 51.2 40.9 41 23.2 25.8 10.3ZM 37.6 39.7C 38 42.3 37.4 44.9 35.8 47C 34.2 49.1 32 50.5 29.4 50.9C 28.9 51 28.4 51 27.9 51C 23 51 18.9 47.5 18.2 42.7C 17.4 37.3 21.1 32.3 26.4 31.5C 26.9 31.4 27.4 31.4 27.9 31.4C 32.7 31.3 36.8 34.8 37.6 39.7Z"/>
<path id="path1_fill" d="M 140.9 74.4L 125.7 48.2C 113.4 39.4 97.3 31 79.6 23.6C 79 23.3 78.4 23.1 77.8 22.8C 77.1 22.5 76.5 22.3 75.8 22C 71 20 66 18.2 61 16.4C 58.2 15.4 55.3 14.4 52.5 13.5C 52.1 13.4 51.6 13.2 51.2 13.1C 50.8 13 50.4 12.8 50 12.7C 33.1 7.3 16 2.9 -7.62939e-07 7.62939e-07L 7 12C 7.3 12 7.7 12.1 8 12.1C 8.5 12.2 8.7 12.6 8.7 13C 8.7 13.4 8.4 13.7 8 13.7L 7.9 13.7L 14.5 25.1C 27.6 27.9 40.6 31.4 53 35.4C 53.4 35.5 53.8 35.7 54.3 35.8C 54.7 35.9 55.2 36.1 55.6 36.2C 57.2 36.7 58.9 37.3 60.5 37.9C 60.9 38 61.3 38.2 61.7 38.3C 62.1 38.4 62.5 38.6 63 38.7C 65.5 39.6 67.9 40.5 70.3 41.4C 70.7 41.6 71.1 41.7 71.5 41.9C 71.9 42.1 72.3 42.2 72.7 42.4C 74.6 43.1 76.5 43.9 78.4 44.7C 78.8 44.9 79.2 45 79.6 45.2C 80 45.4 80.4 45.5 80.8 45.7C 113 59.3 137.9 75.8 144.7 90.3C 144.9 90.8 145.2 91.3 145.3 91.8C 145.5 90.9 145.7 90 145.7 89C 146.1 81.2 141.9 75.7 140.9 74.4ZM 99.9 38.1C 100 37.7 100.5 37.4 100.9 37.7L 106 40.7C 106.3 40.9 106.4 41.2 106.3 41.5C 106.2 41.8 105.9 42.1 105.6 42.1C 105.5 42.1 105.3 42.1 105.2 42L 100.1 38.9C 99.9 38.7 99.8 38.4 99.9 38.1ZM 16.8 19.8C 15.2 19.8 13.8 19.4 12.7 18.7C 12.4 18.5 12.3 18.3 12.4 18C 12.5 17.6 13 17.4 13.3 17.6C 14.3 18.2 15.4 18.5 16.7 18.5C 17.1 18.5 17.3 18.8 17.3 19.2C 17.4 19.5 17.1 19.8 16.8 19.8ZM 21.9 12.4C 21.8 12.4 21.8 12.4 21.7 12.4C 18.9 11.8 16.1 11 13.4 10.1C 12.8 9.9 12.3 9.8 11.7 9.6C 11.3 9.5 11.1 9.2 11.2 8.8C 11.3 8.4 11.7 8.1 12.1 8.2L 12.7 8.4C 15.7 9.3 18.9 10.2 22 10.9C 22.4 11 22.6 11.3 22.6 11.7C 22.6 12 22.3 12.4 21.9 12.4ZM 39.4 22C 39.3 22.4 39 22.7 38.7 22.7C 38.6 22.7 38.5 22.7 38.4 22.6C 35.7 21.6 32.9 20.8 30.3 20.1C 30 20 29.8 19.7 29.8 19.4C 29.9 19 30.2 18.7 30.6 18.8C 33.3 19.4 36.1 20.1 38.9 21.1C 39.3 21.3 39.5 21.7 39.4 22ZM 45.8 18.2C 45.7 18.5 45.4 18.8 45.1 18.8C 45 18.8 44.9 18.8 44.8 18.7C 42.8 17.7 40.8 17 38.8 16.3C 38.5 16.2 38.3 15.9 38.4 15.6C 38.5 15.2 38.8 15 39.2 15.1C 41.2 15.8 43.4 16.5 45.5 17.5C 45.8 17.6 45.9 17.9 45.8 18.2ZM 57.2 30.9L 57.1 30.9C 57 30.9 57 30.9 56.9 30.9C 56.6 30.8 56.2 30.7 55.9 30.7C 53.8 30.2 51.7 29.4 49.7 28.7C 49.1 28.5 48.6 28.3 48 28.1C 47.6 28 47.4 27.6 47.5 27.2C 47.6 26.7 48 26.5 48.4 26.6L 48.6 26.7C 51.1 27.5 53.8 28.4 56.4 29.1C 56.7 29.2 57 29.3 57.2 29.3C 57.3 29.3 57.5 29.4 57.6 29.5C 57.8 29.7 57.9 29.9 57.8 30.2C 57.9 30.5 57.6 30.8 57.2 30.9ZM 70.5 26.9C 69.4 26.7 68.3 26.4 67.2 26C 66.8 25.9 66.3 25.7 65.9 25.6C 65.5 25.5 65.1 25.3 64.6 25.2C 62.8 24.6 61 23.9 59.1 23.1C 59 23.1 58.9 23 58.9 23C 58.5 22.8 58.3 22.4 58.4 22C 58.4 21.8 58.5 21.7 58.6 21.6C 58.8 21.4 59.1 21.3 59.4 21.4L 61.4 22C 62.4 22.3 63.4 22.6 64.4 22.9C 64.9 23 65.3 23.2 65.8 23.3C 66.2 23.4 66.7 23.6 67.1 23.7C 67.9 23.9 68.6 24.2 69.4 24.4C 69.9 24.6 70.5 24.7 71 24.9C 71.1 24.9 71.1 25 71.2 25C 71.6 25.2 71.8 25.6 71.7 26C 71.7 26.1 71.7 26.1 71.6 26.2C 71.5 26.6 71.2 26.9 70.7 26.9C 70.7 26.9 70.6 26.9 70.5 26.9ZM 81.9 39.4C 81.8 39.8 81.5 40.1 81.1 40.1C 81 40.1 80.9 40.1 80.8 40L 80.7 40C 80.3 39.8 79.9 39.6 79.5 39.5C 79.3 39.4 79.1 39.3 78.9 39.2C 77.3 38.4 75.6 37.7 73.8 37C 73.4 36.9 73 36.7 72.6 36.6C 72.2 36.5 71.8 36.3 71.4 36.3C 71 36.2 70.8 35.9 70.9 35.5C 70.9 35.2 71.2 34.9 71.6 34.8C 71.7 34.8 71.8 34.8 71.9 34.8C 72.2 34.9 72.6 35 72.9 35C 73.3 35.1 73.7 35.2 74.1 35.4C 76.1 36 78 36.9 79.8 37.8C 79.9 37.8 80 37.9 80.1 37.9C 80.4 38 80.7 38.2 81 38.3C 81.2 38.4 81.4 38.5 81.6 38.6C 81.8 38.8 81.9 39.1 81.9 39.4ZM 84.5 32.7C 84.6 32.3 84.9 32 85.3 32.2C 87.2 32.8 89.1 33.6 90.9 34.3C 92.5 35 94.2 35.7 95.9 36.2C 96.2 36.3 96.4 36.6 96.4 37C 96.3 37.3 96.1 37.6 95.7 37.6C 95.6 37.6 95.6 37.6 95.5 37.6C 93.8 37 92.1 36.3 90.5 35.6C 88.7 34.8 86.8 34 84.9 33.4C 84.7 33.4 84.5 33.1 84.5 32.7ZM 101 49C 100.9 49.4 100.6 49.7 100.2 49.7C 100.1 49.7 100 49.7 99.9 49.6C 96.4 48 93.2 46.8 90.1 45.8C 89.8 45.7 89.6 45.4 89.6 45C 89.7 44.6 90.1 44.3 90.5 44.4C 93.6 45.3 96.9 46.6 100.6 48.2C 100.9 48.4 101 48.7 101 49ZM 109.2 47.7C 109.1 48.1 108.8 48.4 108.5 48.4C 108.4 48.4 108.3 48.4 108.2 48.3C 105.9 47.4 103.9 46 101.9 44.7C 101.6 44.5 101.5 44.2 101.6 43.9C 101.7 43.5 102.2 43.3 102.6 43.5L 102.8 43.6C 104.6 44.8 106.5 46 108.6 46.7C 109.1 46.9 109.3 47.3 109.2 47.7ZM 122.9 60.3C 122.8 60.7 122.5 60.9 122.1 60.9C 122 60.9 121.9 60.9 121.7 60.8C 120.1 60 118.7 59.1 117.2 58.2C 116 57.4 114.7 56.6 113.5 56C 113.2 55.8 113 55.5 113.1 55.2C 113.2 54.7 113.8 54.4 114.2 54.7C 115.8 55.5 117.3 56.5 118.8 57.4C 120 58.1 121.2 58.8 122.4 59.5C 122.8 59.7 123 60 122.9 60.3ZM 128 55.6C 127.9 55.9 127.6 56.2 127.2 56.2C 127.1 56.2 126.9 56.2 126.8 56.1C 126 55.5 125.1 55 124.2 54.4C 123.1 53.7 121.9 53 120.9 52.2C 120.7 52 120.6 51.7 120.7 51.4C 120.9 50.9 121.6 50.7 122 51C 122.9 51.7 123.9 52.3 124.8 52.8C 125.8 53.4 126.9 54 127.8 54.7C 128 55 128.1 55.3 128 55.6Z"/>
<path id="path2_fill" d="M 17 13.3C 17.4 11.7 18.5 10.2 19 8.5C 19.3 7.4 19.6 6.2 19.7 5.1L 16.8 0C 12.5 3 6.9 5.5 -1.52588e-06 6.6C 5.9 8.8 11.7 11 17 13.3Z"/>
<path id="path3_fill" d="M 8 8.9L 2.9 -3.8147e-07C 2.7 0.5 2.5 1 2.3 1.5C 1.8 2.5 0.599998 3.9 -1.52588e-06 5.2C 2.8 6.4 5.5 7.7 8 8.9Z"/>
<path id="path4_fill" d="M 19.5757 2.26486C 16.3757 -0.335142 11.8756 -0.735142 7.97565 1.26486C 2.47565 4.16486 -0.524348 10.9649 0.0756521 19.4649C 0.475652 25.4649 3.07565 30.1649 5.57565 34.7649C 6.77565 36.9649 7.87565 39.0649 8.77565 41.2649C 8.87565 41.3649 8.87565 41.5649 8.97565 41.6649C 9.17565 42.2649 9.47565 42.9649 9.67565 43.5649C 14.1757 35.7649 18.6756 27.9649 23.1756 20.1649L 22.7756 20.0649C 22.3756 20.4649 21.8756 20.7649 21.3756 20.9649C 21.2756 20.9649 21.2756 21.0649 21.1756 21.0649C 17.8756 22.4649 14.7756 22.5649 12.3756 21.3649C 11.4756 20.8649 10.3756 20.0649 9.47565 18.5649C 8.97565 17.7649 8.57565 16.6649 8.27565 15.3649C 8.17565 14.6649 8.57565 13.9649 9.27565 13.8649C 9.97565 13.7649 10.6756 14.1649 10.7756 14.8649C 10.8756 15.1649 10.8756 15.3649 10.9756 15.6649C 11.4756 17.3649 12.2756 18.4649 13.4756 19.1649C 15.0756 19.9649 17.2756 19.8649 19.6756 18.9649C 19.7756 18.8649 19.9757 18.8649 20.0757 18.7649C 21.8757 17.9649 23.2756 15.6649 23.6756 12.7649C 24.1756 8.76486 22.6757 4.76486 19.5757 2.26486Z"/>
<path id="path5_fill" d="M 19.5757 2.26485C 16.3757 -0.335148 11.8756 -0.735148 7.97565 1.26485C 2.47565 4.16485 -0.524352 10.9649 0.0756475 19.4649C 0.475648 25.4649 3.07565 30.1649 5.57565 34.7649C 6.77566 36.9649 7.87565 39.0649 8.77565 41.2649C 8.77565 41.3649 8.87564 41.4649 8.87564 41.5649C 9.07564 41.9649 9.17565 42.3649 9.27565 42.7649C 13.5757 35.3649 17.8757 27.9649 22.0757 20.5649C 21.7757 20.7649 21.4756 20.9649 21.1756 21.0649C 21.1756 21.0649 21.1757 21.0649 21.0757 21.0649C 17.7757 22.4649 14.6757 22.5649 12.2757 21.3649C 11.3757 20.8649 10.2756 20.0649 9.37564 18.5649C 8.87564 17.7649 8.47565 16.6649 8.17565 15.3649C 8.07565 14.6649 8.47565 13.9649 9.17565 13.8649C 9.87565 13.7649 10.5756 14.1649 10.6756 14.8649C 10.6756 15.0649 10.7757 15.1649 10.7757 15.3649C 11.2757 17.1649 12.0756 18.4649 13.3756 19.0649C 15.0756 19.9649 17.4756 19.7649 19.9756 18.6649C 20.5756 18.3649 21.0757 17.9649 21.5757 17.4649C 22.5757 16.3649 23.2757 14.6649 23.5757 12.6649C 24.1757 8.76486 22.6757 4.76485 19.5757 2.26485Z"/>
<path id="path6_fill" d="M 19.5756 2.26486C 16.3756 -0.335139 11.8757 -0.735139 7.97565 1.26486C 2.47565 4.16486 -0.524357 10.9649 0.0756429 19.4649C 0.475643 25.4649 3.07564 30.1649 5.57564 34.7649C 6.77564 36.9649 7.87565 39.0649 8.77565 41.2649C 8.77565 41.3649 8.77565 41.3649 8.87565 41.4649C 8.97565 41.5649 8.97564 41.7649 9.07564 41.8649C 12.0756 36.6649 15.0756 31.4649 18.0756 26.2649C 19.0756 24.5649 20.0756 22.8649 21.0756 21.1649C 17.8756 22.5649 14.7756 22.6649 12.3756 21.3649C 11.4756 20.8649 10.3757 20.0649 9.47565 18.5649C 8.97565 17.7649 8.57565 16.6649 8.27565 15.3649C 8.17565 14.6649 8.57565 13.9649 9.27565 13.8649C 9.97565 13.7649 10.6757 14.1649 10.7757 14.8649C 10.7757 15.0649 10.8757 15.2649 10.9757 15.4649C 11.4757 17.1649 12.2756 18.3649 13.5756 19.0649C 15.2756 19.9649 17.6756 19.7649 20.1756 18.6649C 20.3756 18.5649 20.6756 18.3649 20.8756 18.2649C 22.2756 17.2649 23.3757 15.1649 23.7757 12.6649C 24.1757 8.76485 22.6756 4.76486 19.5756 2.26486Z"/>
<path id="path7_fill" d="M 19.4 7.60001L 0 41.2C 1.1 41.7 2.2 42.3 3.3 43L 34.8 0L 19.4 7.60001Z"/>
<path id="path8_fill" d="M 31.5 0L 1.90735e-07 43C 0.4 43.3 0.7 43.6 1.1 44L 3.7 44C 7.4 38.6 11.7 33.6 15.5 28.2C 16.3 27.2 18 28.1 17.3 29.2C 13.8 34.4 9.6 38.9 5.9 43.9L 9.6 43.9C 13.1 40.4 17.2 37.2 21.5 35.4C 22.6 34.9 23.4 36.3 22.4 37C 19.2 39.3 16.1 41.5 13.1 43.9L 49.9 43.9L 26.1 35.8L 31.5 0Z"/>
<path id="path9_fill" d="M 2.5 4.4L 3.4 6L 8.7 15.2C 9 15.2 9.4 15.2 9.7 15.2C 10.2 15.2 10.4 15.6 10.4 16C 10.4 16.4 10.1 16.8 9.6 16.8L 9.5 16.8L 13.4 23.5C 39.4 25.9 68.9 32.9 97 43.5C 109.6 48.3 121.4 53.6 132 59.2L 125.5 47.9C 123.2 46.7 120.7 46.1 117.9 45.5C 117.5 45.4 117.3 45.1 117.3 44.7C 117.3 44.3 117.7 43.9 118.3 44C 120.3 44.4 122.3 44.9 124.2 45.6L 120.4 39L 119.8 37.9L 119.4 37.1C 118.9 36.9 118.5 36.7 118 36.5C 117.7 36.4 117.5 36.1 117.5 35.8C 117.5 35.7 117.5 35.7 117.5 35.6C 117.6 35.2 117.9 35 118.2 35L 115.3 30C 111.7 28.2 107.8 26.4 103.8 24.6C 103.6 24.6 103.3 24.5 103.2 24.3C 95.9 21.2 88 18.3 79.7 15.6C 78.3 15.1 76.9 14.7 75.4 14.2C 73.6 13.6 71.7 13 69.9 12.5C 58.8 9.3 47.4 6.4 36.3 4C 35.5 3.8 34.7 3.7 33.9 3.5C 33.1 3.3 32.4 3.2 31.6 3C 25.5 1.8 19.6 0.8 14 0L 0 0L 1.6 2.8L 2.5 4.4ZM 106.3 40.4C 106.2 40.8 105.9 41 105.6 41C 105.5 41 105.4 41 105.3 41C 103.2 40.3 101 39.5 99 38.8C 97.3 38.2 95.5 37.5 93.7 36.9C 93.2 36.7 93.1 36.3 93.1 36C 93.2 35.5 93.6 35.2 94.1 35.4L 94.6 35.6C 98.3 36.8 102.1 38.1 105.8 39.6C 106.2 39.6 106.4 40 106.3 40.4ZM 102.4 31C 102.6 31 102.8 31 103 31.1C 104.9 31.4 106.8 31.9 108.6 32.6C 109 32.8 109.5 32.9 109.9 33.1C 110.4 33.3 110.8 33.4 111.3 33.6C 111.7 33.7 111.9 34.1 111.9 34.4C 111.9 34.5 111.9 34.6 111.9 34.7C 111.8 35.1 111.5 35.4 111.2 35.4L 111.1 35.4C 111 35.4 110.9 35.4 110.8 35.3C 110.3 35.1 109.7 34.9 109.2 34.6C 107 33.7 104.8 32.7 102.4 32.3C 102.1 32.2 101.8 31.9 101.9 31.6C 101.8 31.2 102.1 31 102.4 31ZM 89.7 29.3C 90 29.4 90.3 29.5 90.5 29.6C 91.8 30.1 93.1 30.7 94.4 30.9C 94.7 31 94.9 31.2 94.9 31.6C 94.9 32 94.6 32.2 94.2 32.2C 94.1 32.2 94.1 32.2 94 32.2C 92.6 31.9 91.3 31.3 90 30.8C 89.7 30.7 89.4 30.6 89.2 30.5C 88.9 30.4 88.7 30.1 88.8 29.7C 88.9 29.4 89.3 29.2 89.7 29.3ZM 80.9 23C 81 22.7 81.2 22.4 81.5 22.4C 81.6 22.4 81.7 22.4 81.7 22.4C 83.8 23.3 86 24 88.5 24.7C 88.9 24.8 89.1 25.1 89 25.5C 88.9 25.9 88.6 26.2 88.3 26.2C 88.2 26.2 88.1 26.2 88.1 26.2C 85.6 25.4 83.3 24.6 81.2 23.7C 81 23.6 80.9 23.3 80.9 23ZM 77.2 29.4C 78.3 29.7 79.4 29.9 80.5 30.3C 80.8 30.4 81 30.7 81 31.1C 80.9 31.5 80.7 31.7 80.3 31.7C 80.2 31.7 80.2 31.7 80.1 31.7C 79 31.4 77.9 31.1 76.9 30.8C 75.8 30.5 74.7 30.3 73.6 29.9C 73.3 29.8 73.1 29.5 73.1 29.1C 73.2 28.7 73.6 28.4 74 28.5C 75 28.9 76.1 29.2 77.2 29.4ZM 68.3 16.1C 68.4 15.7 68.8 15.4 69.2 15.6C 70.6 16.1 72.2 16.6 74 16.9C 74.4 17 74.6 17.3 74.6 17.7C 74.6 18.1 74.3 18.4 73.8 18.4C 73.7 18.4 73.7 18.4 73.6 18.4C 71.8 18 70.2 17.5 68.8 17C 68.4 16.8 68.2 16.5 68.3 16.1ZM 55.5 18.3C 56.4 18.5 57.3 18.8 58.1 19C 59.8 19.5 61.5 20 63.2 20.2C 63.8 20.3 64 20.7 64 21.1C 64 21.5 63.7 21.9 63.1 21.9C 63 21.9 63 21.9 62.9 21.9C 61.1 21.6 59.3 21.1 57.6 20.5C 56.7 20.2 55.9 20 55 19.7C 54.6 19.6 54.4 19.3 54.5 18.9C 54.6 18.5 55 18.2 55.5 18.3ZM 41.6 11.4C 41.7 11.4 41.8 11.4 41.8 11.4C 44.2 12.1 46.5 12.4 48.9 12.8C 49.3 12.9 49.5 13.2 49.5 13.6C 49.5 14 49.2 14.3 48.8 14.3L 48.7 14.3C 46.2 14 43.7 13.6 41.3 12.9C 40.9 12.8 40.7 12.4 40.7 12C 40.9 11.7 41.1 11.4 41.6 11.4ZM 41.1 21.4C 42.7 21.8 44.4 22 46 22.1C 46.7 22.2 47.5 22.2 48.2 22.3C 48.7 22.4 48.9 22.8 48.9 23.1C 48.9 23.5 48.6 23.7 48.3 23.7L 48.2 23.7C 47.5 23.6 46.7 23.5 46 23.4C 44.3 23.2 42.6 23 40.9 22.6C 40.6 22.5 40.4 22.2 40.4 21.8C 40.3 21.6 40.7 21.3 41.1 21.4ZM 23.1 14.5C 25.9 14.5 28.7 15.1 31.4 15.7C 32.1 15.9 32.9 16 33.6 16.2C 34 16.3 34.2 16.6 34.2 17C 34.2 17.4 33.9 17.8 33.4 17.8C 33.3 17.8 33.3 17.8 33.2 17.8C 32.5 17.6 31.8 17.5 31 17.3C 28.4 16.7 25.8 16.1 23.1 16C 22.6 16 22.4 15.6 22.4 15.2C 22.4 14.9 22.7 14.5 23.1 14.5ZM 11.5 6.7C 11.6 6.7 11.7 6.6 11.8 6.6L 11.9 6.6C 14.6 6.8 17.5 7.1 20.3 7.3C 20.7 7.3 21.1 7.4 21.5 7.4C 22 7.4 22.3 7.8 22.3 8.2C 22.3 8.3 22.3 8.3 22.3 8.4C 22.3 8.9 21.9 9.2 21.5 9.2L 21.4 9.2C 20.5 9.1 19.6 9 18.7 8.9C 16.4 8.6 14 8.3 11.8 8C 11.3 7.9 11.1 7.5 11.1 7.2C 11.2 7 11.3 6.8 11.5 6.7Z"/>
<path id="path10_fill" d="M 0 12.2L 21.4 49.1L 15.3 59.7C 16.2 59.3 17.2 59.1 18.3 59.1C 23.5 59.1 32.5 64.7 38.4 73.9C 46.5 86.5 46.5 100.4 38.4 106.2C 38 106.5 37.4 106.7 36.9 106.7C 36.4 106.7 35.9 106.6 35.5 106.3C 34.6 105.7 34.2 104.6 34.5 103.5C 36.2 96.8 32.8 88.9 25.8 83.4C 24.8 82.6 23.9 81.9 23 81.2C 18.8 78 15.3 75.2 13.2 72.3C 13 72.1 12.8 71.8 12.7 71.5C 11.8 69.9 11.3 68.3 11.4 66.5L 4.9 77.7C 16.8 80.2 26.3 88.4 29.4 96.3C 31.4 101.4 30.7 106 27.3 109.1C 25.9 110.4 25.2 111.7 25.6 112.6C 25.9 113.5 27.7 114.4 31.5 114.4L 31.5 114.4C 41.1 114.4 48.3 109.9 51.1 102.2C 55.8 89.5 48 72.1 31.3 57.8C 30.8 57.4 30.7 56.6 31.1 56.1C 31.5 55.6 32.2 55.4 32.8 55.7C 39.4 59.6 47 61.8 54.2 61.8C 69.8 61.8 75.3 52.9 75.3 44.5C 75.3 36.1 69.7 27.2 54.2 27.2C 47 27.2 39.4 29.4 32.8 33.3C 32.2 33.6 31.5 33.5 31.1 32.9C 30.7 32.4 30.8 31.6 31.3 31.2C 38.2 25.3 44.8 17.4 48.2 8.8C 46.4 8 44.5 7.3 42.6 6.6C 41.5 9.6 40.1 12.5 38.4 15.2C 33.7 22.5 24.9 30 18.3 30C 15.4 30 13.1 28.4 12 25.7C 9.2 18.3 14.9 13.9 22.9 7.8C 23.8 7.1 24.7 6.4 25.7 5.6C 27.2 4.5 28.5 3.1 29.7 1.7C 28 1.1 26.4 0.499998 24.7 -1.52588e-06C 19.1 6.3 10.1 11.4 0 12.2ZM 34.3 42.9C 34.6 42.6 42.1 34.7 51.6 34.7C 61.1 34.7 68.5 42.5 68.9 42.9C 69.8 43.9 69.8 45.4 68.9 46.4C 68.6 46.7 61.1 54.6 51.6 54.6C 42.1 54.6 34.7 46.8 34.3 46.4C 33.4 45.4 33.4 43.9 34.3 42.9Z"/>
<path id="path11_fill" d="M 35.3 13.8C 34.8 13.4 34.3 13 33.8 12.6C 32.9 12.6 32.4 12 32.2 11.3C 26.9 7.1 21.2 3.3 15.3 0L 10.1 9C 10.3 9.1 10.5 9.1 10.7 9.2C 12.6 9.9 14.2 10.7 15.6 11.6C 17.4 12.7 18.8 13.8 19.9 15C 21.3 16.4 22.2 17.6 22.9 18.7C 25.4 23 24.2 25.5 23.3 26.7C 22.6 27.6 21.1 28.7 18.5 28.7C 17.6 28.7 16.7 28.6 15.7 28.3C 14.7 28.1 13.2 27.6 11.6 26.9C 10.3 26.3 8.8 25.6 7.4 24.7C 6.1 23.8 4.7 22.9 3.5 21.9C 3.3 21.7 3.1 21.6 2.9 21.4L 7.62939e-07 26.4C 5.5 29.4 10.7 32.9 15.5 37C 31.2 50.4 41.8 68.8 45.6 89.1L 53.3 89.1C 53 88.7 52.7 88.4 52.4 87.9C 51.8 86.9 51 85.7 50.4 84.2C 50.1 83.5 49.8 82.7 49.5 82L 49.4 81.6C 49.2 81 49 80.4 48.8 79.6C 47.8 76 47.5 73 47.6 70.6C 47.8 66 50 64.4 51.3 63.8C 51.9 63.6 52.5 63.4 53.2 63.4C 55.1 63.4 57 64.4 58.9 66.4C 61 68.8 62.7 72 63.6 75.4C 63.8 76.3 64.1 77.2 64.2 78.2C 64.3 79 64.4 79.7 64.4 80.5C 64.4 80.6 64.4 80.7 64.4 80.8C 64.5 82.2 64.4 83.4 64.3 84.5C 67 79.9 69.7 75.2 72.3 70.6C 72.1 69.8 71.8 69.1 71.6 68.3C 64.9 47.2 52.3 28.3 35.3 13.8ZM 47.3 55.8C 46.5 56.2 45.7 56.5 44.7 56.5C 43.2 56.5 41.5 55.9 39.7 54.7C 38.6 54 37.4 53 36.4 51.9C 35.2 50.8 34.2 49.5 33.2 48.2C 32 46.7 31.2 45.4 30.5 44.1C 29.9 42.9 29.2 41.5 28.7 40.1C 27.7 36.7 28 34.1 29.7 32.5C 30.7 31.6 32 31.1 33.5 31.1C 34.8 31.1 36.3 31.5 37.8 32.2C 39.3 33 40.6 33.9 41.8 34.9C 43.2 36.2 44.5 37.5 45.5 38.9C 46.6 40.5 47.6 42 48.3 43.5C 49 45.1 49.5 46.6 49.7 48C 50.5 51.7 49.5 54.5 47.3 55.8Z"/>
<path id="path12_fill" d="M 6.18339 0.100006C 2.18339 0.700006 -0.516612 4.39999 0.0833881 8.39999C 0.683388 12 3.78338 14.6 7.28338 14.6C 7.68338 14.6 7.98339 14.6 8.38339 14.5C 12.3834 13.9 15.0834 10.2 14.4834 6.20001C 13.8834 2.60001 10.7834 5.68434e-14 7.28338 5.68434e-14C 6.98338 1.13687e-13 6.58339 6.10203e-06 6.18339 0.100006Z"/>
<path id="path13_fill" d="M 0 2L 4.8 2C 3.7 1.2 2.4 0.5 1.2 0L 0 2Z"/>
<path id="path14_fill" d="M 81.1 19.7C 74.5 17.2 67.9 14.9 61.2 12.8C 40.3 6.3 19.2 1.9 3.8147e-07 3.8147e-07L 0.0999998 0.100001L 4.4 7.5C 4.5 7.2 4.8 6.9 5.2 7L 5.7 7.1C 7.4 7.4 9.1 7.7 10.7 8.3C 11 8.4 11.2 8.8 11.2 9.1C 11.1 9.4 10.9 9.7 10.6 9.7C 10.5 9.7 10.4 9.7 10.3 9.7C 8.7 9.1 7.1 8.7 5.4 8.4L 4.9 8.3L 13.5 23.3C 30.5 26.2 48.8 30.8 66.7 36.7C 67.3 36.9 68 37.1 68.6 37.3C 69.7 37.7 70.7 38 71.8 38.4C 72.5 38.6 73.3 38.9 74 39.2C 75.4 39.7 76.8 40.2 78.2 40.7C 78.8 40.9 79.4 41.1 79.9 41.3C 81.6 41.9 83.4 42.6 85.1 43.2C 85.4 43.3 85.6 43.4 85.9 43.5C 86.4 43.7 86.8 43.9 87.3 44C 87.4 44 87.5 44.1 87.7 44.1C 88.6 44.4 89.4 44.8 90.3 45.1C 90.7 45.3 91.2 45.4 91.6 45.6C 91.7 45.6 91.8 45.7 91.9 45.7L 92 45.7C 92.2 45.8 92.4 45.9 92.7 46C 93.4 46.3 94.1 46.6 94.9 46.9C 95.2 47 95.4 47.1 95.7 47.2C 114.1 54.8 127.8 62.2 138 68.9L 132.2 58.9C 132.1 58.9 132.1 58.8 132 58.8C 131.7 58.6 131.6 58.3 131.7 58.1L 123.9 44.6C 123.3 44.4 122.8 44.1 122.2 43.9C 121.8 43.7 121.6 43.3 121.7 43C 121.8 42.7 122 42.4 122.3 42.4C 122.4 42.4 122.5 42.4 122.6 42.4L 121.5 40.4L 120.2 38.1L 119.7 37.2C 115 34.6 110 32.1 104.8 29.6C 97.1 26.1 89.3 22.8 81.1 19.7ZM 21.8 16.9L 21.7 16.9C 20.7 16.8 19.8 16.6 18.8 16.5C 17 16.2 15.1 15.9 13.2 15.9C 12.8 15.9 12.5 15.5 12.5 15.2C 12.5 14.9 12.7 14.5 13.2 14.5C 15.5 14.5 17.7 14.9 19.9 15.2C 20.5 15.3 21.2 15.4 21.8 15.5C 22.3 15.6 22.5 16 22.5 16.4C 22.4 16.7 22.1 16.9 21.8 16.9ZM 33 11.2C 32.9 11.2 32.9 11.2 32.8 11.2C 30.8 10.7 28.7 10.3 26.7 9.9C 25.8 9.7 24.9 9.5 24 9.4C 23.7 9.3 23.5 9 23.5 8.7C 23.5 8.3 23.8 8.1 24.2 8.1C 27.3 8.3 30.4 9 33.3 9.7C 33.7 9.8 33.9 10.1 33.9 10.5C 33.7 10.8 33.5 11.2 33 11.2ZM 46.4 20.7C 44.6 20.5 42.8 20.2 41.1 19.9C 39.8 19.7 38.4 19.4 37.1 19.3C 36.6 19.2 36.4 18.8 36.4 18.4C 36.4 18 36.7 17.7 37.2 17.8C 39.2 18 41.2 18.3 43.1 18.6C 44.2 18.8 45.3 19 46.5 19.1C 47 19.2 47.2 19.6 47.2 20C 47.1 20.4 46.8 20.7 46.4 20.7ZM 59 28.6L 58.9 28.6C 55.8 28.3 52.8 27.5 49.8 26.4C 49.5 26.3 49.3 25.9 49.4 25.6C 49.5 25.2 49.9 25 50.2 25.1C 52.7 25.9 55.4 26.5 58.9 27C 59.4 27.1 59.7 27.5 59.7 27.9C 59.8 28.3 59.5 28.6 59 28.6ZM 61 19.4L 60.9 19.4C 58.5 19 56.2 18 53.9 16.5C 53.6 16.3 53.5 16 53.6 15.7C 53.7 15.3 54.2 15.1 54.6 15.3C 56.7 16.6 59 17.5 61.3 17.9C 61.7 18 61.9 18.3 61.9 18.7C 61.8 19 61.5 19.4 61 19.4ZM 77.1 27.9C 77 27.9 77 27.9 76.9 27.9C 74.6 27.3 71.9 26.5 69.3 25.4C 69 25.2 68.9 24.9 68.9 24.6C 69 24.2 69.4 23.9 69.8 24.1C 71.5 24.8 73.2 25.3 74.9 25.7C 75.7 25.9 76.5 26.2 77.3 26.4C 77.7 26.5 77.9 26.8 77.8 27.2C 77.8 27.6 77.5 27.9 77.1 27.9ZM 77.1 21.9C 76.8 21.7 76.7 21.5 76.8 21.2C 76.9 20.8 77.4 20.5 77.8 20.8C 79.1 21.5 80.6 21.9 82 22.3C 83 22.6 84 22.9 85 23.3C 85.1 23.3 85.2 23.4 85.3 23.4C 85.3 23.4 85.3 23.4 85.4 23.4C 85.7 23.6 85.9 23.9 85.8 24.3C 85.7 24.7 85.5 24.9 85.1 24.9C 85 24.9 84.9 24.9 84.8 24.8C 83.9 24.4 82.9 24.1 81.9 23.8C 80.3 23.3 78.6 22.8 77.1 21.9ZM 90.2 39L 90.1 39C 87.3 38.7 85 37.3 82.7 36C 82.1 35.7 81.5 35.3 80.9 35C 80.6 34.8 80.5 34.6 80.6 34.2C 80.7 33.8 81.2 33.5 81.6 33.7C 82.2 34 82.8 34.3 83.4 34.6C 85.6 35.7 87.7 36.8 90.2 37.2C 90.8 37.3 91 37.8 91 38.2C 90.9 38.6 90.6 39 90.2 39ZM 99 33.3L 98.9 33.3C 97.1 33 95.5 32.1 94 31.2C 93.5 30.9 93 30.7 92.6 30.4C 92.3 30.3 92.2 30 92.3 29.7C 92.4 29.3 92.9 29 93.3 29.2C 93.8 29.4 94.3 29.7 94.7 30C 96.2 30.8 97.6 31.6 99.3 31.9C 99.7 32 99.9 32.3 99.9 32.6C 99.7 33 99.4 33.3 99 33.3ZM 117.6 50.1C 119.9 50.7 122.3 51.4 124.6 52.4C 124.9 52.5 125.1 52.9 125 53.2C 124.9 53.5 124.6 53.9 124.3 53.9C 124.2 53.9 124.1 53.9 124 53.8C 121.9 52.9 119.6 52 117.2 51.3C 116.9 51.2 116.7 50.9 116.7 50.6C 116.9 50.2 117.2 50 117.6 50.1ZM 105.9 41C 106 40.6 106.5 40.3 106.8 40.5C 108.1 41.1 109.5 41.6 110.8 42.1C 111.7 42.4 112.6 42.8 113.5 43.1C 113.8 43.2 114 43.6 114 43.9C 113.9 44.2 113.7 44.5 113.3 44.5C 113.2 44.5 113.1 44.5 113 44.4C 112.1 44 111.2 43.7 110.3 43.3C 108.9 42.8 107.5 42.2 106.2 41.6C 105.9 41.6 105.8 41.3 105.9 41Z"/>
<path id="path15_fill" d="M 1.52588e-06 0.899997C 2.2 3.6 4.3 6.3 6.3 9.2C 5.7 6.1 5.7 3 6.4 3.05176e-06C 4.3 0.700003 2.2 1.1 1.52588e-06 0.899997Z"/>
<path id="path16_fill" d="M 17 21.4C 22.2 19.6 27.1 15.2 23.7 9.19999C 21.7 5.69999 18.6 3.4 14.8 2.1C 11.9 1.1 8.8 0.499997 5.8 -3.05176e-06L -7.62939e-07 10C 5.9 13.3 11.6 17.1 17 21.4Z"/>
<path id="path17_fill" d="M 18 0.8C 13.2 6.4 6.8 8.7 7.62939e-07 9.3L 1.9 12.6C 11.5 12.2 19.9 7.8 25.3 2.2C 23 1.5 20.7 0.699997 18.4 -3.05176e-06C 18.3 0.299997 18.2 0.6 18 0.8Z"/>
<path id="path18_fill" d="M 55.2 34.1C 46.1 22.9 26.9 10.7 2.9 -3.05176e-06L 2.9 0.100003C 2 1.9 1 3.7 1.42109e-14 5.5C 13.4 9.8 29.7 13.5 30.3 30.5C 30.3 31.4 30.3 32.3 30.3 33.2C 36.3 25 47.2 27.9 55.2 34.1Z"/>
<path id="path19_fill" d="M 7.9 13.6C 14.3 13.1 20 11.2 24.9 6.4C 16.7 4 8.4 1.8 -7.10543e-15 1.42109e-14L 7.9 13.6Z"/>
<path id="path20_fill" d="M 99.4 34.5C 92.9 32.2 87.7 33.6 83.4 38.4C 82.4 39 81.5 39.7 80.5 40.4C 80.3 40.4 80.1 40.4 79.9 40.4C 80.6 36.9 80.6 33.3 79.7 29.6C 76.6 16.2 61.5 14.1 50.4 10.3C 49.5 10 49.1 9.1 49.6 8.2C 50.8 5.9 52.3 3.8 54 1.8C 52.6 1.2 51.2 0.6 49.8 0C 47.2 6.5 43 12.5 38.2 17.7C 43.2 15.8 48.4 14.8 53.5 14.8C 67.9 14.8 77.1 22.6 77.2 34.6C 77.2 34.6 77.2 34.6 77.2 34.7C 77.2 46.8 67.9 54.6 53.5 54.6C 48.5 54.6 43.3 53.6 38.4 51.8C 51.6 65.5 57.3 81.2 52.9 93.3C 49.6 102.1 41.6 107.2 30.9 107.2L 30.8 107.2C 25.1 107.2 23.1 105.3 22.5 103.7C 21.8 101.8 22.6 99.5 24.9 97.4C 28.3 94.2 27.3 89.8 26.3 87.4C 23.4 80 14.2 72.4 2.8 70.2L 7.62939e-07 75.1C 6.4 75.9 12.7 77.6 16.7 82.3C 22.5 89.1 20.9 98.3 12.9 101.6C 13 101.7 13 101.7 13.1 101.8C 17.8 105.8 22.2 110.2 26.3 114.9L 26.4 114.9C 30 114.9 32.9 114 36 112C 36.9 111.4 38.4 112.5 38 113.5C 35.4 120 37.1 126.3 39.9 132.5C 40.1 133 40.1 133.5 39.8 133.9C 43.8 140.7 47.1 147.9 49.6 155.4C 50.7 153.6 51.7 151.8 52.9 150C 52.1 147.1 50.6 144.4 49 141.4C 46.5 136.8 43.7 131.5 43.2 125C 42.6 115.4 46.1 107.7 52.5 104.3C 56.5 102.2 60.9 102.2 64.6 104.1C 63.3 101 62.2 97.7 61.9 93.9C 61.3 84.3 64.7 76.6 71.2 73.2C 75.2 71.1 79.6 71.1 83.3 73C 82 69.9 80.9 66.6 80.6 62.8C 80 53.2 83.5 45.5 89.9 42.1C 94.7 39.6 100.2 40.1 104.3 43.3C 107.8 46.1 109.7 50.5 109.4 55C 109.9 54.1 110.4 53.2 111 52.3C 111.6 51.5 112.8 50 113.8 48C 113.7 47.6 113.7 47.2 113.6 46.8C 110.4 41.4 105.2 36.6 99.4 34.5ZM 77.1 53.4C 74.5 57.5 73.2 61 74 65.9C 74.1 66.6 73.6 67.4 72.8 67.4C 67.4 67.1 62.9 70.7 59.8 74.8C 59.2 75.6 57.4 75.5 57.6 74.2C 58 70.1 55.3 64.7 52.4 61.9C 51.4 60.9 52.9 59.5 53.9 60.4C 54 60.5 54 60.5 54.1 60.6C 62.3 59.9 69.1 56.7 75.7 52C 76.6 51.3 77.7 52.5 77.1 53.4Z"/>
<path id="path21_fill" d="M 1.52588e-06 5.5C 2.2 8.1 3.6 11.7 4.3 15.1C 7.4 11.6 11.6 8.9 16.3 8.8C 16.1 5.5 16.7 2.8 18 -3.05176e-06C 12.6 3.4 6.5 6 1.52588e-06 5.5Z"/>
<path id="path22_fill" d="M 10.6 13.3C 10.1 10 10.5 6.2 10.7 3C 10.8 2.2 10.8 1 11.1 0C 4.7 1.7 -3.05176e-06 6.8 -3.05176e-06 6.8C -3.05176e-06 6.8 4.4 11.5 10.6 13.3Z"/>
<path id="path23_fill" d="M 0.300003 14.2C 7.5 12.9 12.9 7.1 12.9 7.1C 12.9 7.1 7.3 1.10001 1.42109e-14 6.10352e-06C 1.42109e-14 0.100006 0.0999985 0.199994 0.0999985 0.299994C 0.599998 4.99999 0.800003 9.6 0.300003 14.2Z"/>
<path id="path24_fill" d="M -1.52588e-06 5.9C 1.5 7.7 2.7 9.5 3.6 11.4C 3.8 11.3 4 11.2 4.1 11.1C 4.9 10.3 6.1 9.8 7.1 9.5C 7.9 9.2 8.9 8.80001 9.8 8.80001C 9.3 5.90001 8.4 2.9 6.9 3.05176e-06C 4.9 2.2 1.5 3.1 -1.52588e-06 5.9Z"/>
<path id="path25_fill" d="M 9.9 -6.10352e-06C 9 1.59999 7.1 2.7 5.7 3.8C 3.8 5.2 1.9 6.49999 -3.05176e-06 7.99999C 1.9 9.69999 4.4 11.5 7.2 13.7C 7.3 13.6 7.3 13.6 7.4 13.5C 10.5 11.7 12.6 8.49999 15.9 6.99999C 16 6.89999 16.1 6.9 16.3 6.9C 14.5 4.3 12.3 1.99999 9.9 -6.10352e-06Z"/>
<path id="path26_fill" d="M 0.525003 2.69999C -0.174997 4.59999 -0.174997 6.30001 0.525003 7.90001C 1.425 7.40001 2.325 6.8 3.225 6.3C 4.825 4.8 7.525 3.4 9.025 2.6C 9.325 2.4 9.625 2.2 10.025 2C 10.125 2 10.125 1.90001 10.225 1.90001C 8.125 0.700006 6.125 -3.05176e-06 4.425 -3.05176e-06C 2.625 0.0999969 1.225 0.899994 0.525003 2.69999Z"/>
<path id="path27_fill" d="M 4.8 0.399997C 3.9 0.499997 3 0.3 2.1 0.2C 1.4 0.1 0.699997 0.100003 -3.05176e-06 3.05176e-06C 0.699997 2.9 0.699997 5.8 -3.05176e-06 8.4C 2.7 6.6 4.2 3.8 4.8 0.399997Z"/>
<path id="path28_fill" d="M 4.5 0.0999969C 2.9 1.1 1.5 2.20001 0.199997 3.50001C 0.0999969 3.60001 0.1 3.69999 0 3.79999C 1.4 2.39999 3 1.3 4.5 0.0999969C 4.5 0.0999969 4.6 0.100006 4.6 6.10352e-06C 4.6 0.100006 4.6 0.0999969 4.5 0.0999969Z"/>
<path id="path29_fill" d="M 0.200003 0C 0.100003 0 0.0999985 0.0999985 -1.52588e-06 0.0999985C 0.0999985 0.199998 0.3 0.199997 0.4 0.199997C 0.4 0.199997 0.400003 0.1 0.200003 0Z"/>
<path id="path30_fill" d="M 10.1 12C 11.7 10.6 13.3 9 14.7 7.4C 13.3 6.9 11.9 5.9 10.9 5.1C 9 3.7 7.4 2 5.6 0.399997C 5.5 0.299997 5.4 0.200003 5.3 3.05176e-06C 3.3 1.5 1.5 2.9 1.52588e-06 4.2C 3.8 6.1 7.5 8.6 10.1 12Z"/>
<path id="path31_fill" d="M 1.5452 -3.05176e-06C -0.0548043 2.2 -0.454804 4.3 0.545196 6.9C 1.2452 8.7 2.64519 9.5 4.44519 9.5C 6.14519 9.5 8.24519 8.8 10.3452 7.5C 9.54519 7.1 8.94519 6.3 8.24519 5.8C 7.34519 5 6.34519 4.2 5.44519 3.4C 4.34519 2.5 2.2452 1.4 1.5452 -3.05176e-06Z"/>
<path id="path32_fill" d="M 10.8 3C 8.2 2 5.5 1 2.8 1.52588e-06C 1.9 1.1 1 2.2 1.52588e-06 3.2C 2.9 4.7 5.8 6.6 8.4 8.5C 9.3 6.7 10.1 4.9 10.8 3Z"/>
<path id="path33_fill" d="M 0.199998 0.1L 0.1 1.52588e-06L 1.52588e-06 0.1C 0.300002 0.3 0.499998 0.5 0.699998 0.6C 0.699998 0.5 0.699998 0.399997 0.699998 0.299997C 0.499998 0.299997 0.299998 0.2 0.199998 0.1Z"/>
<path id="path34_fill" d="M 8.4 13.2C 9.7 13.8 10.9 14.2 12 14.4C 12.8 14.6 13.5 14.7 14.2 14.7C 15.4 14.7 16.4 14.4 17 13.7C 17.9 12.6 17.6 10.8 16.4 8.59999C 15.8 7.49999 14.9 6.5 13.8 5.4C 12.7 4.3 11.4 3.3 9.9 2.4C 8.4 1.4 6.9 0.800006 5.5 0.300006C 5.2 0.200006 4.8 0.100003 4.5 3.05176e-06L 0 7.80001C 0.3 8.10001 0.600002 8.29999 0.900002 8.59999C 2 9.49999 3.2 10.3 4.5 11.2C 5.8 12 7.2 12.6 8.4 13.2ZM 3.5 7.80001C 3.3 7.20001 3.6 6.6 4 6.2C 3.7 6.6 4 6.2 4 6C 4.1 5.8 4.3 5.50001 4.5 5.30001C 4.6 5.20001 4.8 5 4.9 4.9C 5.3 4.4 5.9 3.89999 6.5 3.59999C 7.5 3.09999 8.9 3.9 8.7 5C 9.6 5.3 10.3 6.5 9.7 7.4C 9.3 7.9 8.9 8.5 8.3 8.9C 8.3 9 8.2 8.99999 8.2 9.09999C 7.7 10.2 6.3 10.9 5.3 9.80001C 5.2 9.70001 5.2 9.6 5.1 9.5C 5 9.5 5 9.5 4.9 9.4C 4.2 9.2 3.8 8.50001 3.5 7.80001Z"/>
<path id="path35_fill" d="M 15.1925 11C 14.4925 9.6 13.6925 8.2 12.6925 6.8C 11.5925 5.4 10.4925 4.19999 9.29249 3.19999C 8.19249 2.19999 6.89249 1.50001 5.89249 0.900006C 4.79249 0.300006 3.69249 -3.05176e-06 2.79249 -3.05176e-06C 1.99249 -3.05176e-06 1.29249 0.199994 0.792492 0.699994C -0.207508 1.69999 -0.207511 3.49999 0.492489 5.69999C 0.792489 6.79999 1.39249 7.99999 2.09249 9.19999C 2.69249 10.4 3.59249 11.7 4.59249 12.9C 5.49249 14.2 6.49249 15.3 7.49249 16.3C 8.49249 17.3 9.49249 18.1 10.3925 18.8C 11.6925 19.7 12.9925 20.2 13.9925 20.2C 14.4925 20.2 14.8925 20.1 15.2925 19.9C 16.4925 19.2 16.9925 17.3 16.4925 14.9C 16.2925 13.7 15.7925 12.4 15.1925 11ZM 10.1925 11.7C 9.99249 12 9.79249 12.3 9.39249 12.4C 8.99249 12.7 8.69249 12.9 8.19249 13C 8.09249 13 8.09249 13 7.99249 13C 6.89249 13.5 5.79249 12.6 5.69249 11.6C 5.69249 11.5 5.59249 11.4 5.59249 11.4C 5.49249 11.3 5.39249 11.2 5.19249 11.1C 4.99249 11 4.89249 11 4.69249 10.9C 3.89249 10.5 3.79249 9.7 4.09249 9L 4.09249 8.90001C 3.89249 8.20001 4.39249 7.3 5.19249 7.1C 5.49249 7 5.79249 7 6.19249 7C 6.89249 6.4 8.09249 6.29999 8.59249 7.19999C 9.39249 7.19999 10.1925 7.6 10.5925 8.5C 11.2925 9.7 10.9925 10.8 10.1925 11.7Z"/>
<path id="path36_fill" d="M 11.6441 12.7C 11.5441 11.9 11.2441 11.1 11.0441 10.2C 10.1441 6.8 8.4441 4 6.8441 2.2C 5.5441 0.8 4.1441 -1.2207e-05 3.0441 -1.2207e-05C 2.7441 -1.2207e-05 2.4441 0.1 2.1441 0.2C 0.844103 0.7 0.144104 2.5 0.0441042 4.7C -0.155896 7 0.344103 9.90001 1.1441 12.9C 1.3441 13.7 1.6441 14.4 1.8441 15.1C 2.0441 15.8 2.3441 16.5 2.6441 17.1C 3.2441 18.4 3.8441 19.5 4.5441 20.5C 5.4441 21.8 6.4441 22.8 7.4441 23.1L 9.2441 23.1C 9.2441 23.1 9.2441 23.1 9.3441 23.1C 10.0441 22 10.8441 20.6 11.6441 19.2C 11.6441 19.2 11.6441 19.2 11.6441 19.1C 11.9441 17.9 11.9441 16.5 11.8441 15C 11.8441 14.3 11.7441 13.5 11.6441 12.7ZM 9.3441 12C 9.1441 12.7 8.5441 13.4 7.9441 13.8C 7.7441 13.9 7.4441 14 7.2441 14.1C 7.8441 13.9 7.2441 14.1 7.0441 14.2C 6.9441 14.2 6.8441 14.2 6.7441 14.2C 5.8441 14.8 4.7441 15.2 3.6441 14.7C 2.4441 14.1 2.2441 12.6 2.5441 11.4C 2.7441 10.7 3.5441 9.69999 4.3441 9.59999C 4.5441 9.59999 4.6441 9.59999 4.8441 9.59999C 5.2441 9.19999 5.7441 8.90001 6.2441 8.90001C 6.9441 8.70001 7.6441 8.69999 8.2441 9.09999C 8.8441 9.49999 9.1441 10.1 9.1441 10.8C 9.4441 11 9.4441 11.5 9.3441 12Z"/>
<path id="path37_fill" d="M 47.9 13.1C 57.2 12.8 64.2 9.9 69.3 6.3L 65.6 1.38778e-16L 52.2 1.38778e-16C 52.1 0.1 51.9 0.2 51.7 0.3C 51.2 0.5 50.7 0.3 50.3 1.38778e-16L 43.1 1.38778e-16L 42.9 1.4C 42.8 2 42.3 2.4 41.7 2.5C 41.7 2.5 41.7 2.5 41.6 2.5C 41 2.5 40.5 2.1 40.4 1.6L 39.9 1.38778e-16L 33.3 1.38778e-16L 32.9 0.8C 32.6 1.3 32 1.6 31.4 1.4C 30.8 1.2 30.4 0.7 30.4 0.1L 30.4 0L -7.62939e-07 0C 0.0999992 0.1 0.199998 0.2 0.299998 0.3C 16.3 3.5 32.8 8 47.9 13.1ZM 45.1 6.8C 49.8 6.3 54.1 5.2 58.5 3.4C 59.1 3.2 59.5 3.9 59 4.3C 55 6.7 50.3 9.4 45.4 9.2C 44.1 9 43.7 6.9 45.1 6.8Z"/>
</defs>
</svg>
